<?xml version="1.0" encoding="UTF-8" standalone="no"?>
<svg
   xmlns:dc="http://purl.org/dc/elements/1.1/"
   xmlns:cc="http://creativecommons.org/ns#"
   xmlns:rdf="http://www.w3.org/1999/02/22-rdf-syntax-ns#"
   xmlns:svg="http://www.w3.org/2000/svg"
   xmlns="http://www.w3.org/2000/svg"
   xmlns:sodipodi="http://sodipodi.sourceforge.net/DTD/sodipodi-0.dtd"
   xmlns:inkscape="http://www.inkscape.org/namespaces/inkscape"
   inkscape:version="1.0 (4035a4fb49, 2020-05-01)"
   sodipodi:docname="c18f8f63a3232a0d246868b4d9f20f7b.svg"
   id="svg10"
   version="1.1"
   viewBox="0 0 36 36">
  <metadata
     id="metadata16">
    <rdf:RDF>
      <cc:Work
         rdf:about="">
        <dc:format>image/svg+xml</dc:format>
        <dc:type
           rdf:resource="http://purl.org/dc/dcmitype/StillImage" />
      </cc:Work>
    </rdf:RDF>
  </metadata>
  <defs
     id="defs14" />
  <sodipodi:namedview
     inkscape:current-layer="svg10"
     inkscape:window-maximized="1"
     inkscape:window-y="-8"
     inkscape:window-x="-8"
     inkscape:cy="18"
     inkscape:cx="18"
     inkscape:zoom="23.888889"
     showgrid="false"
     id="namedview12"
     inkscape:window-height="1027"
     inkscape:window-width="1920"
     inkscape:pageshadow="2"
     inkscape:pageopacity="0"
     guidetolerance="10"
     gridtolerance="10"
     objecttolerance="10"
     borderopacity="1"
     bordercolor="#666666"
     pagecolor="#ffffff" />
  <path
     sodipodi:nodetypes="ccssscccscc"
     id="path4"
     d="M 32,6.13 C 30.81,7.571 28.818,8.081 26.924,8.251 26.606,6.713 25.241,1 22.5,1 20.097,1 19.231,2.091 18,2.091 16.769,2.091 15.903,1 13.5,1 10.759,1 9.394,6.713 9.076,8.251 7.182,8.081 5.19,7.57 4,6.13 1.847,3.524 -1,5.444 0.442,8.304 2.72,12.821 8.23,16 18,16 27.769,16 33.279,12.821 35.558,8.304 37,5.444 34.153,3.524 32,6.13 Z"
     fill="#664500" />
  <path
     id="path6"
     d="M21.5 3c-1.869 0-2.543.964-3.5.964-.957 0-1.631-.964-3.5-.964C12.037 3 11 9.75 11 9.75S12.282 12 18 12c5.719 0 7-2.25 7-2.25S23.963 3 21.5 3z"
     fill="#825D0E" />
  <path
     id="path8"
     d="M11 6s2.074 2 7 2c4.927 0 7-2 7-2v2s-2.222 2-7 2c-4.778 0-7-2-7-2V6z"
     fill="#664500" />
</svg>
